<svg width="24" height="24" viewBox="0 0 24 24" fill="none" xmlns="http://www.w3.org/2000/svg">
<path d="M19.5 13.5C21.9 14.2 23.5 15.3 23.5 16.5C23.5 18.7 18.4 20.5 12 20.5C5.6 20.5 0.5 18.7 0.5 16.5C0.5 15.1 2.5 13.9 5.5 13.2" stroke="black" stroke-linecap="round" stroke-linejoin="round"/>
<path d="M3.2002 19.1L4.6002 21.6C5.3002 22.7 8.3002 23.5 11.9002 23.5C15.5002 23.5 18.5002 22.7 19.2002 21.6L20.6002 19.1" stroke="black" stroke-linecap="round" stroke-linejoin="round"/>
<path fill-rule="evenodd" clip-rule="evenodd" d="M20.5 16.5C20.5 17.6 16.7 18.5 12 18.5C7.3 18.5 3.5 17.6 3.5 16.5V15.5C3.5 14.4 4.4 13.5 5.5 13.5C5.5 12.4 6.4 11.5 7.5 11.5C7.9 11.5 8.3 11.6 8.6 11.8C8.9 11 9.6 10.5 10.5 10.5C10.6 10.5 10.7 10.5 10.8 10.5C11.1 9.9 11.8 9.5 12.5 9.5C13.4 9.5 14.1 10.1 14.4 10.8C14.7 10.6 15.1 10.5 15.5 10.5C16.2 10.5 16.9 10.9 17.2 11.5C17.3 11.5 17.4 11.5 17.5 11.5C18.6 11.5 19.5 12.4 19.5 13.5C19.5 13.6 19.5 13.7 19.5 13.8C20.1 14.1 20.5 14.8 20.5 15.5V16.5Z" stroke="black" stroke-linecap="round" stroke-linejoin="round"/>
<path d="M12.6 7.6C12.8 7 13.4 6.5 14 6.5H15C15.8 6.5 16.5 5.8 16.5 5V5C16.5 4.2 15.8 3.5 15 3.5H11C10.2 3.5 9.5 2.8 9.5 2V2C9.5 1.2 10.2 0.5 11 0.5H16.5" stroke="black" stroke-linecap="round" stroke-linejoin="round"/>
</svg>
