<svg width="24" height="24" viewBox="0 0 24 24" fill="none" xmlns="http://www.w3.org/2000/svg">
<path d="M18.5001 8.69996L21.6001 11C22.8001 11.9 23.5001 13.3 23.5001 14.8V15.2L13.2001 21C11.7001 21.9 9.7001 21.5 8.6001 20.2L2.0001 13C1.1001 12 0.600098 10.7 0.600098 9.29996V8.29996L11.9001 3.19996C12.9001 2.79996 14.0001 3.09996 14.7001 3.89996V3.89996C15.9001 5.49996 17.6001 6.79996 19.6001 7.39996V7.39996L18.8001 8.19996C16.1001 10.9 12.6001 12.6 8.8001 13.1V13.1C7.8001 13.2 7.2001 14.4 7.6001 15.3V15.4H8.6001" stroke="black" stroke-linecap="round" stroke-linejoin="round"/>
<path d="M7.5 15.5L4.5 12.5L1.5 8.5H0.5" stroke="black" stroke-linecap="round" stroke-linejoin="round"/>
<path d="M10.5 18.5C11.2 19.4 11.6 20.1 11.6 21.3" stroke="black" stroke-linecap="round" stroke-linejoin="round"/>
<path d="M17.4998 9.40002C17.8998 9.70002 18.1998 10 18.4998 10.3C20.1998 12.4 19.4998 14.9 16.9998 16C14.4998 17.1 11.0998 16.2 9.3998 14.1C9.1998 13.8 8.9998 13.5 8.7998 13.2" stroke="black" stroke-linecap="round" stroke-linejoin="round"/>
</svg>
