<svg width="24" height="24" viewBox="0 0 24 24" fill="none" xmlns="http://www.w3.org/2000/svg">
<path fill-rule="evenodd" clip-rule="evenodd" d="M20.5 9.5H3.5V19.6C3.5 20.7 4.4 21.5 5.4 21.5H18.6C19.7 21.5 20.5 20.6 20.5 19.6V9.5Z" stroke="black" stroke-linecap="round" stroke-linejoin="round"/>
<path fill-rule="evenodd" clip-rule="evenodd" d="M17.2 3.5H6.8C5.4 3.5 4.2 4.4 3.9 5.8L3.5 7.5H20.5L20.1 5.8C19.7 4.4 18.5 3.5 17.2 3.5Z" stroke="black" stroke-linecap="round" stroke-linejoin="round"/>
<path fill-rule="evenodd" clip-rule="evenodd" d="M13.5 1.5H11.5C10.9 1.5 10.5 2 10.5 2.5V3.5H14.5V2.5C14.5 2 14 1.5 13.5 1.5Z" stroke="black" stroke-linecap="round" stroke-linejoin="round"/>
<path fill-rule="evenodd" clip-rule="evenodd" d="M2.4 12.1L3.5 12.5V9.5H0.5V9.5C0.5 10.7 1.3 11.8 2.4 12.1Z" stroke="black" stroke-linecap="round" stroke-linejoin="round"/>
<path fill-rule="evenodd" clip-rule="evenodd" d="M21.6 12.1L20.5 12.5V9.5H23.5V9.5C23.5 10.7 22.7 11.8 21.6 12.1Z" stroke="black" stroke-linecap="round" stroke-linejoin="round"/>
<rect x="5.5" y="21.5" width="13" height="2" stroke="black" stroke-linecap="round" stroke-linejoin="round"/>
<path d="M18.4001 9.8V16.5C18.4001 17 18.0001 17.4 17.5001 17.4H16.5001C16.0001 17.4 15.6001 17 15.6001 16.5V12.5C15.6001 11.9 15.1001 11.5 14.6001 11.5V11.5C14.0001 11.5 13.6001 12 13.6001 12.5V13.6C13.6001 14.1 13.2001 14.6 12.6001 14.6V14.6C12.1001 14.6 11.6001 14.2 11.6001 13.6V9.5" stroke="black" stroke-linecap="round" stroke-linejoin="round"/>
</svg>
