<svg width="85" height="26" viewBox="0 0 85 26" fill="none" xmlns="http://www.w3.org/2000/svg">
<path fill-rule="evenodd" clip-rule="evenodd" d="M29.5342 21.8314V23.432C29.8164 23.458 30.0887 23.4753 30.3509 23.4753C31.2082 23.4753 31.6417 23.1812 31.6417 22.6015C31.6417 22.0911 31.1878 21.8314 30.4116 21.8314H29.5342ZM29.5342 19.3739V20.9055H30.3711C30.9862 20.9055 31.4199 20.6287 31.4199 20.1007C31.4199 19.6163 30.9964 19.3482 30.3107 19.3482C30.0182 19.3482 29.7561 19.3567 29.5342 19.3739ZM28.2939 18.3963C28.9494 18.3703 29.6351 18.3529 30.331 18.3529C31.9344 18.3529 32.6503 18.95 32.6503 19.8499C32.6503 20.4988 32.3177 20.9575 31.6419 21.2257V21.2429C32.3779 21.4074 32.8822 21.8834 32.8822 22.6535C32.8822 23.8561 31.8335 24.4706 30.2604 24.4706C29.4032 24.4706 28.7478 24.4531 28.2939 24.4271V18.3963Z" fill="white"/>
<path fill-rule="evenodd" clip-rule="evenodd" d="M37.2911 20.647L35.8112 22.4653L37.4707 24.4706H36.1876L34.6649 22.5419L36.0507 20.647H37.2911ZM33.647 24.4706H34.6307V20.647H33.647V24.4706Z" fill="white"/>
<path fill-rule="evenodd" clip-rule="evenodd" d="M41.9765 24.2564C41.9765 24.8484 41.8005 25.2864 41.4394 25.5702C41.0873 25.8541 40.6381 26 40.101 26C39.4935 26 38.9564 25.8459 38.4896 25.5459L38.9388 24.8079C39.2645 25.0269 39.6255 25.1323 40.0305 25.1323C40.6557 25.1323 40.9639 24.8728 40.9639 24.3537V23.8672C40.647 24.2241 40.2243 24.4023 39.696 24.4023C38.877 24.4023 38.3047 23.8914 38.3047 22.8939V20.6637H39.3173V22.6992C39.3173 23.2589 39.5727 23.5347 40.0745 23.5347C40.418 23.5347 40.7175 23.3886 40.9639 23.0886V20.6637H41.9765V24.2564Z" fill="white"/>
<path fill-rule="evenodd" clip-rule="evenodd" d="M46.6473 24.4771C46.3128 24.973 45.7073 25.2353 45.0293 25.2353C44.3694 25.2353 43.8363 25.0217 43.4295 24.6036C43.0227 24.1855 42.8237 23.6313 42.8237 22.9412C42.8237 22.29 43.0227 21.7454 43.4203 21.3079C43.818 20.8708 44.3244 20.647 44.9299 20.647C45.6531 20.647 46.1954 20.8416 46.5659 21.24L46.0778 22.1245C45.8067 21.8427 45.4724 21.697 45.0656 21.697C44.7671 21.697 44.4961 21.8136 44.2701 22.0468C44.0441 22.2706 43.9356 22.5718 43.9356 22.9412C43.9356 23.3203 44.0532 23.6217 44.2792 23.8549C44.5142 24.0786 44.7943 24.1953 45.1107 24.1953C45.5084 24.1953 45.861 24.0202 46.1593 23.6605L46.6473 24.4771Z" fill="white"/>
<path fill-rule="evenodd" clip-rule="evenodd" d="M50.2054 24.4706V23.0092H48.4414V24.4706H47.4116V20.647H48.4414V22.0915H50.2054V20.647H51.2352V24.4706H50.2054Z" fill="white"/>
<path fill-rule="evenodd" clip-rule="evenodd" d="M54.2876 23.448C55.1866 23.448 55.6558 23.2416 55.6558 22.5543C55.6558 21.8848 55.2074 21.5688 54.321 21.5688C53.4594 21.5688 52.9863 21.8803 52.9863 22.5588C52.9863 23.2283 53.1268 23.448 54.0134 23.448H54.2876ZM52.6273 21.1898C53.0488 20.8253 53.6106 20.647 54.2942 20.647C54.9777 20.647 55.5304 20.8253 55.9516 21.1898C56.3729 21.5462 56.5882 22 56.5882 22.5589C56.5882 23.1178 56.3729 23.5716 55.9516 23.936C55.5304 24.2926 54.9777 24.4706 54.2942 24.4706C53.6106 24.4706 53.0488 24.2926 52.6273 23.936C52.2059 23.5716 52 23.1178 52 22.5589C52 22 52.2059 21.5462 52.6273 21.1898Z" fill="white"/>
<path fill-rule="evenodd" clip-rule="evenodd" d="M58.1526 22.9412C58.5624 22.9412 58.8824 23.3086 58.8824 23.6762C58.8824 24.103 58.5624 24.4706 58.1526 24.4706C57.6727 24.4706 57.353 24.103 57.353 23.6762C57.353 23.3086 57.6727 22.9412 58.1526 22.9412Z" fill="white"/>
<path fill-rule="evenodd" clip-rule="evenodd" d="M36.9577 7.33742C36.1584 8.25101 35.1821 9.79182 35.1773 11.4558C35.1647 12.4932 35.3783 14.0653 36.609 14.7523C38.142 15.6029 39.5399 15.3758 40.922 14.5978C42.4931 13.6885 43.7232 12.2999 43.7232 12.2999C43.7232 12.2999 43.5036 11.8795 42.7546 12.1669C42.0191 12.4524 41.0979 13.0017 40.3575 13.1251C39.0312 13.3348 37.8335 12.5175 38.0066 10.8501C38.1861 9.17983 38.9158 7.46158 39.8284 6.80069C40.3683 6.39836 41.0145 6.14185 41.6584 6.40378C42.1036 6.59791 42.3067 6.79322 42.5065 7.26129C42.7567 7.85556 42.7261 8.45013 42.2956 8.94075C41.9086 9.38539 41.2989 9.68304 40.6987 9.59417C39.4402 9.40808 39.0585 10.7318 39.0585 10.7318C39.0585 10.7318 39.3478 11.1105 40.7667 10.9164C41.6853 10.7754 42.7084 10.2086 43.328 9.67967C46.2122 7.15676 45.1522 5.20791 43.3555 4.69211C41.5551 4.17105 38.3751 5.69604 36.9577 7.33742Z" fill="white"/>
<path fill-rule="evenodd" clip-rule="evenodd" d="M47.5576 10.2239C48.5267 8.93951 49.6079 6.76531 49.9601 6.1263C50.3172 5.49557 51.7129 4.24443 51.9983 5.70916C52.2755 7.15365 52.1544 10.5796 52.0951 11.1886C53.3937 9.85755 55.0435 5.77799 56.3468 4.90353C57.6454 4.04206 57.97 4.74149 58.6829 9.58103C59.3853 14.4458 58.1119 14.7095 56.7586 15.1489C55.4229 15.5857 55.3042 14.5714 55.3027 13.8689C55.3098 13.3607 55.2017 7.89192 54.8126 8.53965C54.756 8.66358 53.1006 11.4576 52.5377 12.3824C52.4135 12.6027 52.1404 12.9901 51.8587 13.39C50.8065 14.9135 49.8798 15.6553 49.7377 14.3959C49.6359 13.39 49.7459 9.53287 49.7587 9.17925C49.797 8.48219 49.6347 8.82355 49.4232 9.14513C49.3328 9.27954 46.2929 15.0491 44.5824 15.2692C43.6608 15.3973 43.51 15.0182 43.619 14.4311C43.7172 13.9442 43.9131 13.2979 44.9012 12.6548C46.3436 11.7292 47.0598 10.8886 47.5576 10.2239Z" fill="white"/>
<path fill-rule="evenodd" clip-rule="evenodd" d="M27.3272 3.83476C26.704 3.70916 24.7451 4.64538 24.1274 6.02688C23.6299 7.10977 21.4505 13.5348 20.3948 16.6831C20.1145 17.5204 19.9277 18.0903 19.8948 18.202C19.7387 18.7388 21.092 19.1672 21.5416 19.113C22.6463 18.979 23.535 18.3658 24.2357 16.0198C25.2686 12.6227 25.815 9.81747 26.1594 9.01769C26.5164 8.21636 29.4085 5.89353 30.6087 6.83393C32.194 8.06303 30.7113 13.0013 27.9909 13.6342C26.2392 14.0547 26.3001 13.1549 25.5727 13.3878C25.2824 14.3155 26.5804 15.2281 28.4319 15.0173C29.7739 14.8618 32.625 13.7033 33.8198 10.8257C35.4406 6.91865 33.4557 4.55741 31.2058 4.43165C28.9646 4.27879 26.4673 7.38173 26.4673 7.38173C26.4673 7.38173 27.6624 3.89733 27.3272 3.83476Z" fill="white"/>
<path fill-rule="evenodd" clip-rule="evenodd" d="M13.2506 6.57338C12.4507 7.48564 11.4777 9.02618 11.4711 10.6898C11.4603 11.7286 11.6709 13.3007 12.9 13.9858C14.4345 14.8392 15.835 14.6113 17.215 13.8314C18.7866 12.9236 20.0193 11.5364 20.0193 11.5364C20.0193 11.5364 19.7965 11.1155 19.0496 11.401C18.3147 11.6863 17.392 12.2355 16.6517 12.3589C15.3253 12.5685 14.1263 11.7526 14.2965 10.0842C14.4792 8.4143 15.2074 6.69634 16.122 6.03557C16.6631 5.63331 17.3096 5.37684 17.954 5.63931C18.3971 5.83693 18.6002 6.03015 18.7986 6.49814C19.0508 7.09026 19.0214 7.68326 18.5891 8.17525C18.2004 8.6185 17.5916 8.91756 16.9923 8.82856C15.732 8.64397 15.3507 9.96596 15.3507 9.96596C15.3507 9.96596 15.6391 10.3448 17.0608 10.1541C17.9794 10.0097 19.0011 9.44308 19.623 8.91405C22.505 6.39011 21.4472 4.44306 19.649 3.92736C17.8492 3.40638 14.6683 4.93169 13.2506 6.57338Z" fill="white"/>
<path fill-rule="evenodd" clip-rule="evenodd" d="M68.5141 11.0147C67.9245 12.5182 66.8971 13.7819 65.2843 13.7173C64.4492 13.6699 63.6439 13.2345 63.5894 11.8925C63.5575 10.9553 63.9406 9.66931 64.3313 8.714C64.8307 7.44608 65.9398 5.51679 67.9675 6.39053C69.2843 6.94652 69.2243 9.2838 68.5141 11.0147ZM71.4023 6.70549C70.0429 3.73932 66.6738 4.42626 64.3651 5.54515C64.3651 5.54515 61.2515 6.70549 60.5231 10.0488C60.0888 12.0236 60.9076 14.3207 63.2536 15.0346C63.9891 15.2482 65.2968 15.4416 66.2781 15.1341C68.9403 14.3023 70.1277 13.5536 71.1463 11.4375C72.105 9.45914 72.0579 8.14698 71.4023 6.70549Z" fill="white"/>
<path fill-rule="evenodd" clip-rule="evenodd" d="M83.5893 14.4371C81.0571 12.4608 79.878 10.0007 78.1307 8.92595C80.1308 7.06959 81.1115 6.46653 82.6529 6.53849C84.0081 6.60797 84.6204 5.35054 84.3659 4.63988C83.9887 3.58231 82.8867 3.47652 80.7039 4.77175C78.9261 5.82668 76.9442 8.50048 76.4578 8.89178C76.9284 6.34985 77.6669 4.15252 77.6669 4.15252C77.1308 4.02643 76.858 3.9548 76.4114 4.01603C75.8772 4.07281 75.1866 4.19015 74.8477 4.91384C74.5233 5.6217 72.6625 12.3995 72.2139 13.9091C71.7805 15.4145 71.7832 15.7355 72.1564 15.8916C72.5088 16.0476 73.7507 16.403 74.8033 15.4047C75.872 14.3981 76.2365 10.3831 76.341 10.3974C76.3598 10.3974 76.3834 10.3415 76.41 10.2679C76.6242 10.3926 77.1278 10.8259 77.6153 11.8303C77.7828 12.1823 77.9077 12.4008 78.1866 12.9075C78.8528 14.1186 79.2667 15.0302 81.3168 16.2677C82.9404 17.2373 84.4491 16.7706 84.8056 16.1368C85.0887 15.6546 84.5672 15.193 83.5893 14.4371Z" fill="white"/>
<path fill-rule="evenodd" clip-rule="evenodd" d="M15.5975 0.520167C15.3815 0.209959 15.6267 -0.0509675 13.4846 0.186478C11.3474 0.427476 3.21312 1.53607 2.49062 1.63896C1.62314 1.7593 0.744112 2.2277 0.289062 2.8923C-0.163887 3.54717 0.0508808 3.84347 0.0508808 3.84347C0.0508808 3.84347 0.266399 4.09652 2.71484 3.84981C5.13522 3.61437 6.78733 3.5776 6.78733 3.5776L7.11091 3.56277C5.86478 7.07702 3.65856 13.7227 3.5382 14.1381C3.52994 14.1693 3.52514 14.1982 3.52454 14.228C3.51478 14.26 3.50773 14.2812 3.50368 14.2975C3.35089 14.8333 4.67612 15.2612 5.11586 15.2072C5.14903 15.2039 5.1807 15.1988 5.21372 15.1939C5.40988 15.1831 5.65976 15.1299 5.93651 14.9743C6.64956 14.6243 7.25139 13.8376 7.75446 12.1218C7.78808 12.0068 7.82185 11.8936 7.85427 11.7814H7.84616C8.66486 9.01505 9.5466 5.13358 10.0161 3.40473C11.0624 3.34896 12.4322 3.29705 13.2736 3.34309C14.7963 3.42373 15.3164 3.04833 15.713 2.40212C16.107 1.76934 15.8273 0.827595 15.5975 0.520167Z" fill="white"/>
</svg>
