<svg width="21" height="14" viewBox="0 0 21 14" fill="none" xmlns="http://www.w3.org/2000/svg">
<path fill-rule="evenodd" clip-rule="evenodd" d="M4.67224 11.4849C4.15247 10.5077 3.18723 6.62427 3.18723 6.62427C3.18723 6.62427 0.97968 6.22777 0.77064 5.95073C0.62095 5.75235 0.685642 5.38723 0.734442 5.11181C0.75379 5.00261 0.77064 4.90751 0.77064 4.84249C0.77064 4.61348 3.18723 4.84249 3.18723 4.84249C3.18723 4.84249 3.53623 4.56935 3.70185 4.27584C3.86747 3.98234 4.51488 3.18247 6.00286 2.47826C7.49085 1.77405 9.83254 1.67748 9.83254 1.67748V0.914832C9.83254 0.604457 9.89944 0.405698 9.9843 0.278427C9.9991 0.138695 10.0084 0.052002 10.0084 0.052002H10.3327H10.3583H10.6826C10.6826 0.052002 10.6919 0.138695 10.7067 0.278427C10.7915 0.405698 10.8584 0.604457 10.8584 0.914832V1.67748C10.8584 1.67748 13.2001 1.77405 14.6881 2.47826C16.1761 3.18247 16.8235 3.98234 16.9891 4.27584C17.1547 4.56935 17.5037 4.84249 17.5037 4.84249C17.5037 4.84249 19.9203 4.61348 19.9203 4.84249C19.9203 4.90751 19.9372 5.00261 19.9565 5.11182C20.0053 5.38724 20.07 5.75235 19.9203 5.95073C19.7113 6.22777 17.5037 6.62427 17.5037 6.62427C17.5037 6.62427 16.5385 10.5077 16.0187 11.4849C15.9519 11.6105 15.8943 11.7317 15.8393 11.8475C15.466 12.633 15.2096 13.1725 12.9912 13.1725C12.7973 13.1725 12.6057 13.172 12.417 13.1712C12.4171 13.1721 12.4171 13.1725 12.4171 13.1725H7.69979C5.4814 13.1725 5.22497 12.633 4.85168 11.8475C4.79663 11.7317 4.73903 11.6105 4.67224 11.4849Z" fill="white"/>
</svg>
