<svg width="28" height="19" viewBox="0 0 28 19" fill="none" xmlns="http://www.w3.org/2000/svg">
<path fill-rule="evenodd" clip-rule="evenodd" d="M5.78449 16.5561C5.03181 15.141 3.63404 9.51739 3.63404 9.51739C3.63404 9.51739 0.437251 8.94322 0.134539 8.54203C-0.0822296 8.25475 0.0114513 7.72602 0.0821192 7.32718C0.110138 7.16904 0.134539 7.03132 0.134539 6.93717C0.134539 6.60553 3.63404 6.93717 3.63404 6.93717C3.63404 6.93717 4.13943 6.54162 4.37926 6.1166C4.6191 5.69158 5.55662 4.53327 7.71139 3.51349C9.86616 2.49372 13.2572 2.35387 13.2572 2.35387V1.24948C13.2572 0.800018 13.3541 0.512193 13.477 0.327891C13.4984 0.125542 13.5118 0 13.5118 0H13.9814H14.0186H14.4882C14.4882 0 14.5016 0.125542 14.523 0.327891C14.6459 0.512193 14.7428 0.800018 14.7428 1.24948V2.35387C14.7428 2.35387 18.1338 2.49372 20.2886 3.51349C22.4434 4.53327 23.3809 5.69158 23.6207 6.1166C23.8606 6.54162 24.366 6.93717 24.366 6.93717C24.366 6.93717 27.8655 6.60553 27.8655 6.93717C27.8655 7.03132 27.8899 7.16904 27.9179 7.32718C27.9885 7.72602 28.0822 8.25475 27.8655 8.54203C27.5627 8.94322 24.366 9.51739 24.366 9.51739C24.366 9.51739 22.9682 15.141 22.2155 16.5561C22.1188 16.738 22.0354 16.9135 21.9557 17.0812C21.4151 18.2186 21.0437 19 17.8313 19C17.5506 19 17.273 18.9993 16.9997 18.998C16.9999 18.9993 17 19 17 19H10.1687C6.95625 19 6.58491 18.2186 6.04434 17.0812C5.96462 16.9135 5.88122 16.738 5.78449 16.5561Z" fill="white"/>
</svg>
