<svg width="24" height="24" viewBox="0 0 24 24" fill="none" xmlns="http://www.w3.org/2000/svg">
<path fill-rule="evenodd" clip-rule="evenodd" d="M12.5 16.5C16.9183 16.5 20.5 12.9183 20.5 8.5C20.5 4.08172 16.9183 0.5 12.5 0.5C8.08172 0.5 4.5 4.08172 4.5 8.5C4.5 12.9183 8.08172 16.5 12.5 16.5Z" stroke="black" stroke-linecap="round" stroke-linejoin="round"/>
<path d="M8.6001 15.3V17.6C8.6001 19.8 10.4001 21.5 12.5001 21.5V21.5C14.7001 21.5 16.4001 19.7 16.4001 17.6V15.3" stroke="black" stroke-linejoin="round"/>
<path d="M11.5 18.5V17.2" stroke="black" stroke-linecap="round" stroke-linejoin="round"/>
<path d="M13.5 18.5V17.2" stroke="black" stroke-linecap="round" stroke-linejoin="round"/>
<path d="M12.5 21.5V23.5" stroke="black" stroke-linecap="round" stroke-linejoin="round"/>
<path d="M7.69989 9.7C7.39989 9.2 7.49989 8.7 7.49989 8.5C7.49989 5.7 9.69989 3.5 12.4999 3.5C15.2999 3.5 17.4999 5.7 17.4999 8.5C17.4999 9 17.2999 9.8 17.2999 9.8" stroke="black" stroke-linecap="round" stroke-linejoin="round"/>
<path d="M12 16.5V16.5C11.2 16.5 10.5 15.8 10.5 15V15C10.5 14.2 11.2 13.5 12 13.5V13.5C13 13.5 13.9 13 14.4 12.2L15.5 10.5" stroke="black" stroke-linecap="round" stroke-linejoin="round"/>
<path d="M12.5001 13.4C11.8001 13.3 11.1001 12.8 10.7001 12.2L9.6001 10.5" stroke="black" stroke-linecap="round" stroke-linejoin="round"/>
</svg>
