<svg width="24" height="24" viewBox="0 0 24 24" fill="none" xmlns="http://www.w3.org/2000/svg">
<path d="M20.1 11.7C22.2 12.4 23.5 13.4 23.5 14.5C23.5 16.7 18.4 18.5 12 18.5C5.6 18.5 0.5 16.7 0.5 14.5C0.5 13.6 1.3 12.8 2.6 12.2" stroke="black" stroke-linecap="round" stroke-linejoin="round"/>
<path d="M9.7998 10.5C10.3998 10.5 11.5998 10.5 11.9998 10.5C12.5998 10.5 13.2998 10.5 13.8998 10.6" stroke="black" stroke-linecap="round" stroke-linejoin="round"/>
<path d="M22.9998 15.6C22.9998 15.6 17.3998 21.9 17.1998 22.1C16.4998 22.8 14.3998 23.4 11.9998 23.4C9.6998 23.4 7.7998 22.9 6.8998 22.2L0.799805 15.4" stroke="black" stroke-linecap="round" stroke-linejoin="round"/>
<path d="M10.7002 18.5C11.1002 17.3 11.6002 16.2 12.1002 15.1L15.5002 7.9C16.2002 6.5 18.0002 5.9 19.3002 6.7V6.7C20.7002 7.5 21.1002 9.3 20.2002 10.6L15.6002 17.1C15.4002 17.4 15.1002 17.8 14.8002 18.1" stroke="black" stroke-linecap="round" stroke-linejoin="round"/>
<path d="M15.4004 8.59998L17.0004 9.59998" stroke="black" stroke-linecap="round" stroke-linejoin="round"/>
<path d="M12.4004 15L13.4004 15.6" stroke="black" stroke-linecap="round" stroke-linejoin="round"/>
<path d="M17.6002 14L16.2002 13.2" stroke="black" stroke-linecap="round" stroke-linejoin="round"/>
<path d="M21.5 4.5L19.5 6.5H21.5" stroke="black" stroke-linecap="round" stroke-linejoin="round"/>
<path d="M19.5 6.5V4.5" stroke="black" stroke-linecap="round" stroke-linejoin="round"/>
<path fill-rule="evenodd" clip-rule="evenodd" d="M7.69989 9.20005C7.79989 8.40005 7.29989 7.50005 6.19989 7.20005C5.69989 7.10005 5.19989 7.30005 4.79989 7.70005V7.70005C4.69989 7.20005 4.39989 6.70005 3.89989 6.40005C3.39989 6.10005 2.79989 6.10005 2.29989 6.40005C1.29989 7.10005 1.09989 8.40005 1.89989 9.20005C2.19989 9.50005 2.49989 9.60005 2.89989 9.70005V9.70005C2.49989 10 2.29989 10.6 2.39989 11.1C2.59989 12.2 3.49989 12.7 4.39989 12.6C4.29989 13.3 4.59989 14 5.29989 14.3C5.79989 14.6 6.39989 14.6 6.89989 14.3C7.19989 14.1 7.39989 13.9 7.59989 13.6C7.89989 13.1 8.29989 12.6 8.89989 12.3C8.99989 12.2 9.29989 12 9.39989 11.7C9.69989 11.2 9.69989 10.6 9.39989 10.1C8.99989 9.40005 8.29989 9.10005 7.69989 9.20005Z" stroke="black" stroke-linejoin="round"/>
<path d="M5.1001 10.1001L9.9001 14.8001" stroke="black" stroke-linecap="round" stroke-linejoin="round"/>
<path fill-rule="evenodd" clip-rule="evenodd" d="M7.99998 0.8C6.79998 2.4 7.19998 4.7 8.79998 5.8C10.4 6.9 12.6 6.5 13.8 4.9L14 4.6L8.29998 0.5L7.99998 0.8Z" stroke="black" stroke-linecap="round" stroke-linejoin="round"/>
</svg>
