<svg width="25" height="24" viewBox="0 0 25 24" fill="none" xmlns="http://www.w3.org/2000/svg">
<path d="M14.5 0.5H9C8.2 0.5 7.5 1.2 7.5 2V2C7.5 2.8 8.2 3.5 9 3.5H13C13.8 3.5 14.5 4.2 14.5 5V5C14.5 5.8 13.8 6.5 13 6.5H12C11.3 6.5 10.8 6.9 10.6 7.6" stroke="black" stroke-linecap="round" stroke-linejoin="round"/>
<path fill-rule="evenodd" clip-rule="evenodd" d="M12 18.5C18.3513 18.5 23.5 16.4853 23.5 14C23.5 11.5147 18.3513 9.5 12 9.5C5.64873 9.5 0.5 11.5147 0.5 14C0.5 16.4853 5.64873 18.5 12 18.5Z" stroke="black" stroke-linecap="round" stroke-linejoin="round"/>
<path d="M14.6001 12.6C18.6001 13 21.5001 14.4 21.5001 16C21.5001 16.1 21.5001 16.2 21.5001 16.4" stroke="black" stroke-linecap="round" stroke-linejoin="round"/>
<path d="M9.3999 14.6C9.9999 14.6 10.3999 14.5 10.9999 14.5C11.8999 14.5 12.8999 14.6 13.9999 14.7" stroke="black" stroke-linecap="round" stroke-linejoin="round"/>
<path d="M2.5 16.4C2.5 16.3 2.5 16.2 2.5 16C2.5 14.3 5.8 12.9 10.2 12.6" stroke="black" stroke-linecap="round" stroke-linejoin="round"/>
<path d="M23.5 14.4V14.4C22.3 18 19.2 20.7 15.4 21.2C14.3 21.3 13.2 21.4 12 21.4C10.8 21.4 9.7 21.3 8.6 21.2C4.8 20.7 1.7 18.1 0.5 14.5V14.4" stroke="black" stroke-linecap="round" stroke-linejoin="round"/>
<path d="M17.5 21.2C17.5 22.5 15 23.5 12 23.5C9 23.5 6.5 22.5 6.5 21.2" stroke="black" stroke-linecap="round" stroke-linejoin="round"/>
<path d="M9.3999 14.4C9.7999 13.6 10.2999 12.9 10.8999 12.2L11.2999 11.8C12.0999 11 13.2999 11 14.0999 11.8V11.8C14.8999 12.6 14.8999 13.8 14.0999 14.6" stroke="black" stroke-linecap="round" stroke-linejoin="round"/>
<path d="M14.2998 11.7L19.3998 6.59998" stroke="black" stroke-linecap="round" stroke-linejoin="round"/>
<path fill-rule="evenodd" clip-rule="evenodd" d="M23.6002 2.3V2.3C23.2002 1.9 22.6002 1.9 22.2002 2.3L18.7002 5.8L20.1002 7.2L23.6002 3.7C24.0002 3.3 24.0002 2.7 23.6002 2.3Z" stroke="black" stroke-linecap="round" stroke-linejoin="round"/>
</svg>
