<svg width="24" height="24" viewBox="0 0 24 24" fill="none" xmlns="http://www.w3.org/2000/svg">
<path d="M11.4 13C11 13.3 10.5 13.4 10 13.4C8.6 13.4 7.5 12.3 7.5 10.9C7.5 9.5 8.6 8.5 10 8.5C11.4 8.5 12.5 9.6 12.5 11" stroke="black" stroke-linecap="round" stroke-linejoin="round"/>
<path fill-rule="evenodd" clip-rule="evenodd" d="M14 15.5C15.3807 15.5 16.5 14.3807 16.5 13C16.5 11.6193 15.3807 10.5 14 10.5C12.6193 10.5 11.5 11.6193 11.5 13C11.5 14.3807 12.6193 15.5 14 15.5Z" stroke="black" stroke-linecap="round" stroke-linejoin="round"/>
<path d="M8.60019 13.2V13.2C7.60019 13.3 7.00019 14.5 7.40019 15.4V15.5" stroke="black" stroke-linecap="round" stroke-linejoin="round"/>
<path d="M18.5001 8.69996L21.6001 11C22.8001 11.9 23.5001 13.3 23.5001 14.8V15.2L13.2001 21C11.7001 21.9 9.7001 21.5 8.6001 20.2L2.0001 13C1.1001 12 0.600098 10.7 0.600098 9.29996V8.29996L11.9001 3.19996C12.9001 2.79996 14.0001 3.09996 14.7001 3.89996V3.89996C15.9001 5.49996 17.6001 6.79996 19.6001 7.39996V7.39996L18.8001 8.19996C18.1001 8.89996 15.6001 10.4 15.6001 10.4" stroke="black" stroke-linecap="round" stroke-linejoin="round"/>
<path d="M0.5 8.5H1.5L4.5 12.5L7.5 15.5" stroke="black" stroke-linecap="round" stroke-linejoin="round"/>
<path d="M10.5 18.3C11.2 19.1 11.6 20.2 11.6 21.3" stroke="black" stroke-linecap="round" stroke-linejoin="round"/>
<path d="M14.5002 10.5V10.5C14.5002 8.6 13.7002 6.7 12.4002 5.4L11.3002 4.3V4.3C10.1002 3.1 8.5002 2.5 6.8002 2.5H6.2002" stroke="black" stroke-linecap="round" stroke-linejoin="round"/>
<path d="M10.5 8.60002L12.7 6.40002" stroke="black" stroke-linecap="round" stroke-linejoin="round"/>
</svg>
