<?xml version="1.0" encoding="UTF-8"?>
<svg width="229px" height="15px" viewBox="0 0 229 15" version="1.1" xmlns="http://www.w3.org/2000/svg" xmlns:xlink="http://www.w3.org/1999/xlink">
    <!-- Generator: Sketch 49.3 (51167) - http://www.bohemiancoding.com/sketch -->
    <title>teremok_slogan_line_right_big</title>
    <desc>Created with Sketch.</desc>
    <defs></defs>
    <g id="0-Style-and-UI" stroke="none" stroke-width="1" fill="none" fill-rule="evenodd">
        <g id="big_headers" transform="translate(-712.000000, -1635.000000)" fill="#FFFFFF" fill-rule="nonzero">
            <g id="teremok_slogan_line_right_big" transform="translate(712.000000, 1635.000000)">
                <polygon id="Path-10" points="227.680714 0.615219153 228.319286 1.38478085 212.333333 14.6497205 196.666667 1.64972049 181 14.6497205 165.333333 1.64972049 149.666667 14.6497205 134 1.64972049 118.333333 14.6497205 102.666667 1.64972049 87 14.6497205 71.3333333 1.64972049 55.6666667 14.6497205 40 1.64972049 24.3333333 14.6497205 8.65667849 1.64143242 0.624565354 7.89453553 0.0102634162 7.10546447 8.67665485 0.358567576 24.3333333 13.3502795 40 0.350279511 55.6666667 13.3502795 71.3333333 0.350279511 87 13.3502795 102.666667 0.350279511 118.333333 13.3502795 134 0.350279511 149.666667 13.3502795 165.333333 0.350279511 181 13.3502795 196.666667 0.350279511 212.333333 13.3502795"></polygon>
                <polygon id="Path-10" transform="translate(114.182140, 7.500000) scale(1, -1) translate(-114.182140, -7.500000) " points="227.680714 0.615219153 228.319286 1.38478085 212.333333 14.6497205 196.666667 1.64972049 181 14.6497205 165.333333 1.64972049 149.666667 14.6497205 134 1.64972049 118.333333 14.6497205 102.666667 1.64972049 87 14.6497205 71.3333333 1.64972049 55.6666667 14.6497205 40 1.64972049 24.3333333 14.6497205 8.65733433 1.64197663 0.66092647 7.89389915 0.0449931633 7.10610085 8.67599901 0.358023368 24.3333333 13.3502795 40 0.350279511 55.6666667 13.3502795 71.3333333 0.350279511 87 13.3502795 102.666667 0.350279511 118.333333 13.3502795 134 0.350279511 149.666667 13.3502795 165.333333 0.350279511 181 13.3502795 196.666667 0.350279511 212.333333 13.3502795"></polygon>
            </g>
        </g>
    </g>
</svg>