<svg width="98" height="6" viewBox="0 0 98 6" fill="none" xmlns="http://www.w3.org/2000/svg">
<path d="M8.53799 2.75C8.53799 3.99268 6.8505 5 4.76922 5C2.68749 5 1 3.99268 1 2.75" stroke="white"/>
<path d="M8.53809 3.5C8.53809 2.25732 10.2256 1.25 12.3069 1.25C14.3886 1.25 16.0761 2.25732 16.0761 3.5" stroke="white"/>
<path d="M23.6142 2.75C23.6142 3.99268 21.9266 5 19.8453 5C17.7637 5 16.0762 3.99268 16.0762 2.75" stroke="white"/>
<path d="M22.8604 3.5C22.8604 2.25732 24.5478 1.25 26.6293 1.25C28.7109 1.25 30.3983 2.25732 30.3983 3.5" stroke="white"/>
<path d="M37.9364 2.75C37.9364 3.99268 36.2489 5 34.1674 5C32.0859 5 30.3984 3.99268 30.3984 2.75" stroke="white"/>
<path d="M37.9365 3.5C37.9365 2.25732 39.6241 1.25 41.7054 1.25C43.787 1.25 45.4745 2.25732 45.4745 3.5" stroke="white"/>
<path d="M53.0126 2.75C53.0126 3.99268 51.3251 5 49.2438 5C47.1621 5 45.4746 3.99268 45.4746 2.75" stroke="white"/>
<path d="M53.0117 3.5C53.0117 2.25732 54.6992 1.25 56.7805 1.25C58.8622 1.25 60.5497 2.25732 60.5497 3.5" stroke="white"/>
<path d="M68.0878 2.75C68.0878 3.99268 66.4003 5 64.3189 5C62.2373 5 60.5498 3.99268 60.5498 2.75" stroke="white"/>
<path d="M67.334 3.5C67.334 2.25732 69.0215 1.25 71.103 1.25C73.1845 1.25 74.872 2.25732 74.872 3.5" stroke="white"/>
<path d="M82.4101 2.75C82.4101 3.99268 80.7226 5 78.6411 5C76.5596 5 74.8721 3.99268 74.8721 2.75" stroke="white"/>
<path d="M82.4102 3.5C82.4102 2.25732 84.0975 1.25 86.179 1.25C88.2608 1.25 89.9482 2.25732 89.9482 3.5" stroke="white"/>
<path d="M97.4862 2.75C97.4862 3.99268 95.7987 5 93.7173 5C91.6356 5 89.9482 3.99268 89.9482 2.75" stroke="white"/>
</svg>
