<svg width="129" height="7" viewBox="0 0 129 7" fill="none" xmlns="http://www.w3.org/2000/svg">
<path d="M10 3C10 4.65691 7.76135 6 5.00029 6C2.23864 6 0 4.65691 0 3" stroke="white"/>
<path d="M10 4C10 2.34309 12.2386 1 14.9997 1C17.7614 1 20 2.34309 20 4" stroke="white"/>
<path d="M30 3C30 4.65691 27.7613 6 25.0001 6C22.2387 6 20 4.65691 20 3" stroke="white"/>
<path d="M29 4C29 2.34309 31.2386 1 34 1C36.7614 1 39 2.34309 39 4" stroke="white"/>
<path d="M49 3C49 4.65691 46.7614 6 44 6C41.2386 6 39 4.65691 39 3" stroke="white"/>
<path d="M49 4C49 2.34309 51.2387 1 53.9999 1C56.7613 1 59 2.34309 59 4" stroke="white"/>
<path d="M69 3C69 4.65691 66.7614 6 64.0003 6C61.2386 6 59 4.65691 59 3" stroke="white"/>
<path d="M69 4C69 2.34309 71.2386 1 73.9997 1C76.7614 1 79 2.34309 79 4" stroke="white"/>
<path d="M89 3C89 4.65691 86.7613 6 84.0001 6C81.2387 6 79 4.65691 79 3" stroke="white"/>
<path d="M88 4C88 2.34309 90.2386 1 93 1C95.7614 1 98 2.34309 98 4" stroke="white"/>
<path d="M108 3C108 4.65691 105.761 6 103 6C100.239 6 98 4.65691 98 3" stroke="white"/>
<path d="M108 4C108 2.34309 110.238 1 113 1C115.762 1 118 2.34309 118 4" stroke="white"/>
<path d="M128 3C128 4.65691 125.761 6 123 6C120.238 6 118 4.65691 118 3" stroke="white"/>
</svg>
