<svg width="42" height="12" viewBox="0 0 42 12" fill="none" xmlns="http://www.w3.org/2000/svg">
<path fill-rule="evenodd" clip-rule="evenodd" d="M2.92926 10.25C2.01466 10.25 1.30187 10.0031 0.790889 9.5093C0.279903 9.0155 0.0244141 8.33707 0.0244141 7.474C0.0244141 6.95443 0.105932 6.46172 0.26897 5.99583C0.432008 5.52994 0.682527 5.10592 1.02053 4.72376C1.33468 4.36307 1.73829 4.06894 2.23138 3.84136C2.72447 3.61379 3.27522 3.5 3.88363 3.5C4.58748 3.5 5.1253 3.63955 5.4971 3.91865C5.86891 4.19776 6.05481 4.58206 6.05481 5.07156C6.05481 5.20468 6.03493 5.35281 5.99516 5.51598C5.9554 5.67915 5.89575 5.81656 5.81622 5.9282C5.7168 6.0656 5.60845 6.1708 5.49114 6.2438C5.37383 6.31679 5.19787 6.35329 4.96325 6.35329C4.65308 6.35329 4.41151 6.27064 4.23853 6.10532C4.06555 5.94 3.97906 5.76718 3.97906 5.58683C3.97906 5.37214 4.02082 5.15959 4.10433 4.94919C4.18783 4.73879 4.29321 4.51765 4.42046 4.28578C4.38467 4.23855 4.3121 4.18058 4.20274 4.11188C4.09339 4.04318 3.95123 4.00883 3.77626 4.00883C3.31101 4.00883 2.92529 4.31262 2.61909 4.92021C2.3129 5.52779 2.15981 6.28029 2.15981 7.17772C2.15981 7.86045 2.27612 8.37786 2.50875 8.72996C2.74137 9.08206 3.07242 9.25811 3.50188 9.25811C3.9393 9.25811 4.30414 9.16687 4.59642 8.98438C4.8887 8.80188 5.18793 8.48951 5.49412 8.04723L5.92358 8.44012C5.59751 8.98545 5.16606 9.42342 4.62923 9.75406C4.09239 10.0847 3.52574 10.25 2.92926 10.25ZM14.9272 9.5H9.82381L9.92278 9.06098C10.0506 9.05285 10.2527 9.03252 10.529 9C10.8053 8.96748 10.9971 8.93496 11.1043 8.90244C11.2239 8.86585 11.3342 8.79675 11.4352 8.69512C11.5363 8.5935 11.6054 8.45935 11.6425 8.29268L12.5642 4.37805H10.9991L11.129 3.82317H11.3022C11.6652 3.82317 11.9951 3.78455 12.292 3.70732C12.5889 3.63008 12.8467 3.53659 13.0652 3.42683C13.2879 3.31707 13.4817 3.19817 13.6467 3.07012C13.8117 2.94207 13.9333 2.83537 14.0117 2.75H15.1004C15.0138 3.05488 14.9272 3.36788 14.8406 3.68902C14.754 4.01016 14.6756 4.32317 14.6055 4.62805L13.7828 8.11585C13.7704 8.16463 13.7591 8.22154 13.7488 8.28659C13.7385 8.35163 13.7333 8.40447 13.7333 8.44512C13.7333 8.54268 13.755 8.62398 13.7983 8.68902C13.8416 8.75407 13.9024 8.80894 13.9807 8.85366C14.0715 8.90244 14.2364 8.94715 14.4756 8.9878C14.7148 9.02846 14.8983 9.05285 15.0262 9.06098L14.9272 9.5ZM24.146 5.58827C24.146 7.20958 23.5027 8.57614 22.216 9.68801C20.9293 10.7999 19.2008 11.4872 17.0304 11.75L16.9914 11.1496L17.7062 11.0404C18.2607 10.903 18.7405 10.721 19.1456 10.4946C19.5506 10.2682 19.8961 10.0094 20.182 9.71833C20.4636 9.43127 20.7073 9.11085 20.9131 8.75708C21.1189 8.4033 21.2846 8.05256 21.4102 7.70485C20.9857 8.00404 20.5784 8.21226 20.1885 8.32951C19.7986 8.44677 19.3741 8.50539 18.9149 8.50539C18.2607 8.50539 17.7127 8.2901 17.2708 7.8595C16.8289 7.42891 16.608 6.88814 16.608 6.2372C16.608 5.28706 17.0271 4.46833 17.8654 3.781C18.7037 3.09366 19.7293 2.75 20.9423 2.75C21.9171 2.75 22.6947 3.00876 23.2752 3.52628C23.8557 4.0438 24.146 4.73113 24.146 5.58827ZM21.8846 5.21986C21.8846 4.6815 21.7843 4.26028 21.5838 3.95616C21.3832 3.65205 21.1262 3.5 20.8127 3.5C20.2917 3.5 19.8376 3.79178 19.4503 4.37534C19.063 4.95891 18.8694 5.67808 18.8694 6.53288C18.8694 6.97671 18.9743 7.33219 19.1841 7.59932C19.3938 7.86644 19.6693 8 20.0105 8C20.2733 8 20.5407 7.94966 20.8127 7.84897C21.0847 7.74829 21.3429 7.57055 21.5872 7.31575C21.6195 7.18425 21.6771 6.94486 21.7601 6.5976C21.8431 6.25034 21.8846 5.7911 21.8846 5.21986ZM32.4378 5.58827C32.4378 7.20958 31.7945 8.57614 30.5078 9.68801C29.2211 10.7999 27.4926 11.4872 25.3222 11.75L25.2832 11.1496L25.998 11.0404C26.5525 10.903 27.0323 10.721 27.4374 10.4946C27.8424 10.2682 28.1879 10.0094 28.4738 9.71833C28.7554 9.43127 28.9991 9.11085 29.2049 8.75708C29.4107 8.4033 29.5764 8.05256 29.702 7.70485C29.2775 8.00404 28.8702 8.21226 28.4803 8.32951C28.0904 8.44677 27.6659 8.50539 27.2067 8.50539C26.5525 8.50539 26.0045 8.2901 25.5626 7.8595C25.1207 7.42891 24.8998 6.88814 24.8998 6.2372C24.8998 5.28706 25.3189 4.46833 26.1572 3.781C26.9955 3.09366 28.0211 2.75 29.2341 2.75C30.2089 2.75 30.9865 3.00876 31.567 3.52628C32.1475 4.0438 32.4378 4.73113 32.4378 5.58827ZM30.9302 5.21986C30.9302 4.6815 30.8299 4.26028 30.6294 3.95616C30.4288 3.65205 30.1718 3.5 29.8583 3.5C29.3373 3.5 28.8832 3.79178 28.4959 4.37534C28.1086 4.95891 27.915 5.67808 27.915 6.53288C27.915 6.97671 28.0199 7.33219 28.2297 7.59932C28.4394 7.86644 28.7149 8 29.0561 8C29.3189 8 29.5863 7.94966 29.8583 7.84897C30.1303 7.74829 30.3885 7.57055 30.6328 7.31575C30.6651 7.18425 30.7227 6.94486 30.8057 6.5976C30.8887 6.25034 30.9302 5.7911 30.9302 5.21986ZM41.4834 2.32766C41.4834 2.85672 41.2709 3.30561 40.8461 3.67435C40.4212 4.04309 39.8315 4.32765 39.0771 4.52806C39.7535 4.76854 40.2532 5.06212 40.5762 5.40882C40.8992 5.75551 41.0607 6.13928 41.0607 6.56012C41.0607 7.38978 40.6336 8.08717 39.7795 8.6523C38.9254 9.21744 37.8307 9.5 36.4953 9.5C35.4894 9.5 34.6874 9.31664 34.0891 8.9499C33.4907 8.58316 33.1916 8.10121 33.1916 7.50401C33.1916 6.92685 33.4105 6.43487 33.8484 6.02806C34.2863 5.62124 34.954 5.32365 35.8515 5.13527C35.3225 4.8988 34.9421 4.60621 34.7101 4.25751C34.4782 3.90882 34.3622 3.54409 34.3622 3.16333C34.3622 2.78657 34.4695 2.43487 34.6841 2.10822C34.8987 1.78156 35.199 1.49599 35.5848 1.2515C35.9447 1.02304 36.3858 0.840682 36.9083 0.704409C37.4307 0.568136 37.9607 0.5 38.4983 0.5C39.4088 0.5 40.1339 0.673345 40.6737 1.02004C41.2135 1.36674 41.4834 1.8026 41.4834 2.32766ZM39.222 2.35182C39.222 2.03182 39.1457 1.76818 38.9931 1.56091C38.8405 1.35364 38.6189 1.25 38.3283 1.25C37.9505 1.25 37.6281 1.39273 37.3611 1.67818C37.0941 1.96364 36.9606 2.30273 36.9606 2.69545C36.9606 2.88818 37.0042 3.05364 37.0914 3.19182C37.1786 3.33 37.2966 3.45364 37.4456 3.56273C37.5691 3.65364 37.7516 3.76364 37.9932 3.89273C38.2348 4.02182 38.4536 4.14091 38.6498 4.25C38.806 4.00636 38.9404 3.70818 39.0531 3.35545C39.1657 3.00273 39.222 2.66818 39.222 2.35182ZM38.4682 7.70248C38.4682 7.46281 38.4103 7.2593 38.2946 7.09194C38.1788 6.92459 38.0226 6.77273 37.8258 6.63636C37.6174 6.49173 37.3705 6.34711 37.085 6.20248C36.7995 6.05785 36.5217 5.90703 36.2516 5.75C36.0664 5.94835 35.887 6.25516 35.7134 6.67045C35.5398 7.08575 35.453 7.52479 35.453 7.9876C35.453 8.45455 35.5668 8.82335 35.7944 9.09401C36.0221 9.36467 36.3288 9.5 36.7146 9.5C37.2393 9.5 37.6628 9.32335 37.9849 8.97004C38.3071 8.61673 38.4682 8.19422 38.4682 7.70248Z" fill="white"/>
</svg>
