<svg width="55" height="15" viewBox="0 0 55 15" fill="none" xmlns="http://www.w3.org/2000/svg">
<path fill-rule="evenodd" clip-rule="evenodd" d="M3.85361 13C2.64028 13 1.6947 12.6708 1.01682 12.0124C0.338935 11.354 0 10.4494 0 9.29866C0 8.60591 0.108143 7.94895 0.324431 7.32777C0.54072 6.70658 0.873061 6.14122 1.32146 5.63168C1.73822 5.15076 2.27365 4.75859 2.92779 4.45515C3.58194 4.15172 4.31256 4 5.11968 4C6.05342 4 6.76689 4.18607 7.26014 4.55821C7.75338 4.93035 8 5.44274 8 6.09542C8 6.2729 7.97362 6.47042 7.92087 6.68798C7.86812 6.90554 7.78899 7.08874 7.68348 7.2376C7.5516 7.4208 7.40785 7.56107 7.25223 7.6584C7.0966 7.75573 6.86317 7.80439 6.55193 7.80439C6.14045 7.80439 5.81998 7.69418 5.5905 7.47376C5.36103 7.25334 5.24629 7.0229 5.24629 6.78244C5.24629 6.49618 5.30168 6.21279 5.41246 5.93225C5.52324 5.65172 5.66304 5.35687 5.83185 5.04771C5.78437 4.98473 5.6881 4.90744 5.54303 4.81584C5.39796 4.72424 5.20936 4.67844 4.97725 4.67844C4.36004 4.67844 3.84834 5.08349 3.44214 5.89361C3.03594 6.70373 2.83284 7.70706 2.83284 8.90363C2.83284 9.81394 2.98714 10.5038 3.29575 10.9733C3.60435 11.4427 4.04352 11.6775 4.61325 11.6775C5.19354 11.6775 5.67755 11.5558 6.06528 11.3125C6.45302 11.0692 6.84998 10.6527 7.25618 10.063L7.82591 10.5868C7.39334 11.3139 6.82097 11.8979 6.1088 12.3387C5.39663 12.7796 4.64491 13 3.85361 13ZM19.7702 12H13L13.1313 11.4146C13.3009 11.4038 13.569 11.3767 13.9355 11.3333C14.3021 11.29 14.5565 11.2466 14.6987 11.2033C14.8574 11.1545 15.0037 11.0623 15.1377 10.9268C15.2718 10.7913 15.3634 10.6125 15.4127 10.3902L16.6354 5.17073H14.5592L14.7315 4.43089H14.9613C15.4428 4.43089 15.8804 4.3794 16.2743 4.27642C16.6682 4.17344 17.0102 4.04878 17.3001 3.90244C17.5955 3.7561 17.8527 3.59756 18.0715 3.42683C18.2903 3.2561 18.4517 3.11382 18.5557 3H20C19.8851 3.40651 19.7702 3.82385 19.6553 4.25203C19.5404 4.68022 19.4365 5.09756 19.3435 5.50407L18.2521 10.1545C18.2356 10.2195 18.2206 10.2954 18.2069 10.3821C18.1932 10.4688 18.1864 10.5393 18.1864 10.5935C18.1864 10.7236 18.2151 10.832 18.2726 10.9187C18.33 11.0054 18.4107 11.0786 18.5147 11.1382C18.635 11.2033 18.8538 11.2629 19.1712 11.3171C19.4885 11.3713 19.7319 11.4038 19.9015 11.4146L19.7702 12ZM32 6.78437C32 8.9461 31.1466 10.7682 29.4397 12.2507C27.7327 13.7332 25.4397 14.6496 22.5603 15L22.5086 14.1995L23.4569 14.0539C24.1925 13.8706 24.829 13.628 25.3664 13.3261C25.9037 13.0243 26.3621 12.6792 26.7414 12.2911C27.1149 11.9084 27.4382 11.4811 27.7112 11.0094C27.9842 10.5377 28.204 10.0701 28.3707 9.60647C27.8075 10.0054 27.2672 10.283 26.75 10.4394C26.2328 10.5957 25.6695 10.6739 25.0603 10.6739C24.1925 10.6739 23.4655 10.3868 22.8793 9.81267C22.2931 9.23854 22 8.51752 22 7.6496C22 6.38274 22.556 5.29111 23.6681 4.37466C24.7802 3.45822 26.1408 3 27.75 3C29.0431 3 30.0747 3.34501 30.8448 4.03504C31.6149 4.72507 32 5.6415 32 6.78437ZM29 6.29315C29 5.57534 28.867 5.0137 28.6009 4.60822C28.3349 4.20274 27.9939 4 27.578 4C26.8868 4 26.2844 4.38904 25.7706 5.16712C25.2569 5.94521 25 6.9041 25 8.04384C25 8.63562 25.1391 9.10959 25.4174 9.46575C25.6957 9.82192 26.0612 10 26.5138 10C26.8624 10 27.2171 9.93288 27.578 9.79863C27.9388 9.66438 28.2813 9.4274 28.6055 9.08767C28.6483 8.91233 28.7248 8.59315 28.8349 8.13014C28.945 7.66712 29 7.0548 29 6.29315ZM43 6.78437C43 8.9461 42.1466 10.7682 40.4397 12.2507C38.7327 13.7332 36.4397 14.6496 33.5603 15L33.5086 14.1995L34.4569 14.0539C35.1925 13.8706 35.829 13.628 36.3664 13.3261C36.9037 13.0243 37.3621 12.6792 37.7414 12.2911C38.1149 11.9084 38.4382 11.4811 38.7112 11.0094C38.9842 10.5377 39.204 10.0701 39.3707 9.60647C38.8075 10.0054 38.2672 10.283 37.75 10.4394C37.2328 10.5957 36.6695 10.6739 36.0603 10.6739C35.1925 10.6739 34.4655 10.3868 33.8793 9.81267C33.2931 9.23854 33 8.51752 33 7.6496C33 6.38274 33.556 5.29111 34.6681 4.37466C35.7802 3.45822 37.1408 3 38.75 3C40.0431 3 41.0747 3.34501 41.8448 4.03504C42.6149 4.72507 43 5.6415 43 6.78437ZM41 6.29315C41 5.57534 40.867 5.0137 40.6009 4.60822C40.3349 4.20274 39.9939 4 39.578 4C38.8868 4 38.2844 4.38904 37.7706 5.16712C37.2569 5.94521 37 6.9041 37 8.04384C37 8.63562 37.1391 9.10959 37.4174 9.46575C37.6957 9.82192 38.0612 10 38.5138 10C38.8624 10 39.2171 9.93288 39.578 9.79863C39.9388 9.66438 40.2813 9.4274 40.6055 9.08767C40.6483 8.91233 40.7248 8.59315 40.8349 8.13014C40.945 7.66712 41 7.0548 41 6.29315ZM55 2.43687C55 3.14229 54.7182 3.74081 54.1545 4.23246C53.5908 4.72412 52.8086 5.10354 51.8078 5.37074C52.7051 5.69138 53.368 6.08283 53.7965 6.54509C54.225 7.00735 54.4392 7.51904 54.4392 8.08016C54.4392 9.18638 53.8727 10.1162 52.7396 10.8697C51.6065 11.6233 50.1543 12 48.3827 12C47.0484 12 45.9843 11.7555 45.1906 11.2665C44.3969 10.7776 44 10.1349 44 9.33868C44 8.56913 44.2905 7.91316 44.8714 7.37074C45.4523 6.82832 46.338 6.43153 47.5286 6.18036C46.8269 5.86506 46.3222 5.47495 46.0145 5.01002C45.7068 4.54509 45.5529 4.05879 45.5529 3.5511C45.5529 3.04876 45.6953 2.57983 45.98 2.14429C46.2647 1.70875 46.663 1.32799 47.1749 1.002C47.6523 0.697393 48.2375 0.454243 48.9306 0.272545C49.6237 0.0908475 50.3268 0 51.04 0C52.2478 0 53.2098 0.231127 53.9259 0.693387C54.642 1.15565 55 1.7368 55 2.43687ZM52 2.46909C52 2.04242 51.8988 1.69091 51.6964 1.41455C51.494 1.13818 51.2 1 50.8145 1C50.3133 1 49.8855 1.1903 49.5313 1.57091C49.1771 1.95152 49 2.40363 49 2.92727C49 3.18424 49.0578 3.40485 49.1735 3.58909C49.2892 3.77333 49.4458 3.93818 49.6434 4.08364C49.8072 4.20485 50.0494 4.35151 50.3699 4.52364C50.6904 4.69576 50.9807 4.85454 51.241 5C51.4482 4.67515 51.6265 4.27758 51.7759 3.80727C51.9253 3.33697 52 2.89091 52 2.46909ZM51 9.60331C51 9.28374 50.9232 9.0124 50.7697 8.78926C50.6161 8.56611 50.4088 8.36364 50.1478 8.18182C49.8714 7.98898 49.5438 7.79614 49.1651 7.60331C48.7863 7.41047 48.4178 7.20937 48.0595 7C47.8138 7.26446 47.5758 7.67355 47.3455 8.22727C47.1152 8.78099 47 9.36639 47 9.98347C47 10.6061 47.151 11.0978 47.453 11.4587C47.755 11.8196 48.1619 12 48.6737 12C49.3698 12 49.9315 11.7645 50.3589 11.2934C50.7863 10.8223 51 10.259 51 9.60331Z" fill="white"/>
</svg>
