<svg width="156" height="7" viewBox="0 0 156 7" fill="none" xmlns="http://www.w3.org/2000/svg">
<path d="M0 1C4.873 1 4.873 6 9.745 6C14.619 6 14.619 1 19.493 1C24.368 1 24.368 6 29.242 6C34.116 6 34.116 1 38.99 1C43.864 1 43.864 6 48.738 6C53.613 6 53.613 1 58.487 1C63.363 1 63.363 6 68.238 6C73.112 6 73.112 1 77.987 1C82.862 1 82.862 6 87.737 6C92.611 6 92.611 1 97.484 1C102.358 1 102.358 6 107.232 6C112.107 6 112.107 1 116.982 1C121.859 1 121.859 6 126.735 6C131.611 6 131.611 1 136.486 1C141.364 1 141.364 6 146.243 6C151.122 6 151.122 1 156 1" stroke="#AD8C51"/>
</svg>
